# xmcd
#
# Track frame offsets:
#	150
#	13574
#	30421
#	44018
#	58977
#	71829
#	84981
#	98063
#	111159
#	128605
#	144679
#	159604
#	175691
#	190386
#	203865
#	219570
#	236307
#	250776
#	266877
#	283880
#
# Disc length: 3846 seconds
#
# Revision: 1
# Processed by: cddbd v1.5.1PL0 Copyright (c) Steve Scherf et al.
# Submitted via: audiograbber 1.83.01
#
DISCID=280f0414
DTITLE=Promo Only Canada - Country Radio - 1999 - 08 - August
DYEAR=1999
DGENRE=Country
TTITLE0=George Strait - What Do You Say To That
TTITLE1=Brooks And Dunn - Missing You
TTITLE2=Tim McGraw - Something Like That
TTITLE3=Steve Wariner - I'm Already Taken
TTITLE4=Martina McBride - I Love You
TTITLE5=James Prosser - Angels Don't Fly
TTITLE6=Shane Minor - Ordinary Love
TTITLE7=Lorrie Morgan - Here I Go
TTITLE8=Gil Grand - Spilled Perfume
TTITLE9=David Ball - I Want To With You
TTITLE10=Lila McCann - Crush
TTITLE11=Lee Roy Parnell - She Won't Be Lonely So Long
TTITLE12=The Kinleys - My Heart Is Still Beating
TTITLE13=Johner Brothers - Still In Love With You
TTITLE14=John Michael Montgomery - Home To You
TTITLE15=Anita Cochran - For Crying Out Loud
TTITLE16=Lisa Angelle - I Wear Your Love
TTITLE17=Tamara Walker - Giant
TTITLE18=Deryl Dodd - Sundown
TTITLE19=The Oak Ridge Boys - Baby When Your Heart Breaks Down
EXTD=
EXTT0=
EXTT1=
EXTT2=
EXTT3=
EXTT4=
EXTT5=
EXTT6=
EXTT7=
EXTT8=
EXTT9=
EXTT10=
EXTT11=
EXTT12=
EXTT13=
EXTT14=
EXTT15=
EXTT16=
EXTT17=
EXTT18=
EXTT19=
PLAYORDER=
